<svg xmlns="http://www.w3.org/2000/svg" viewBox="0 0 100 100">
  <!-- Dark navy background -->
  <rect width="100" height="100" fill="#1F3B6F" rx="12"/>
  <!-- Light Blue Main Wing -->
  <polygon points="7,54 47,25 55,70 21,84" fill="#61B1E3"/>
  <!-- Teal Junction Accent -->
  <polygon points="47,25 55,48 55,70" fill="#74C6D3"/>
  <!-- Dark Navy Upper Body -->
  <polygon points="47,25 57,9 78,17 83,37 68,51 55,48" fill="#E8EFF8"/>
  <!-- Dark Navy Lower Body + Tail -->
  <polygon points="55,48 68,51 72,76 48,91 33,81" fill="#C8D8EC"/>
  <!-- Purple Belly Accent -->
  <polygon points="55,48 68,51 65,68 55,64" fill="#7B6FAF"/>
  <!-- Yellow Beak -->
  <polygon points="78,15 93,27 78,32" fill="#FFDA28"/>
  <!-- Red Crest -->
  <polygon points="74,9 82,3 83,13" fill="#AD1924"/>
  <!-- Red Foot Accent -->
  <polygon points="38,83 48,91 37,94" fill="#AD1924"/>
</svg>
